<?xml version="1.0" encoding="UTF-8" standalone="no"?>
<!DOCTYPE svg PUBLIC "-//W3C//DTD SVG 1.1//EN" "http://www.w3.org/Graphics/SVG/1.1/DTD/svg11.dtd">
<!-- Created with Vectornator (http://vectornator.io/) -->
<svg height="100%" stroke-miterlimit="10" style="fill-rule:nonzero;clip-rule:evenodd;stroke-linecap:round;stroke-linejoin:round;" version="1.1" viewBox="0 0 1024 1024" width="100%" xml:space="preserve" xmlns="http://www.w3.org/2000/svg" xmlns:vectornator="http://vectornator.io" xmlns:xlink="http://www.w3.org/1999/xlink">
<defs/>
<g id="Layer-1" vectornator:layerName="Layer 1">
<path d="M950.093 433.527C950.093 653.267 797.059 845.54 538.08 845.54C279.1 845.54 126.066 653.267 126.066 433.527C126.066 172.585 377.198 178.471 381.122 178.471C408.59 178.471 412.514 276.569 385.046 276.569C361.503 276.569 243.784 294.227 243.784 433.527C243.784 608.142 414.476 708.202 538.08 708.202C661.684 708.202 832.375 608.142 832.375 433.527C832.375 296.189 718.581 276.569 693.075 276.569L693.075 276.569L693.075 276.569C689.151 276.569 687.189 276.569 683.265 276.569C657.76 276.569 591.053 278.531 551.813 313.847C530.232 333.466 520.422 358.972 520.422 394.287C520.422 419.793 528.27 441.375 540.042 459.032L540.042 459.032C532.194 478.652 502.764 504.158 481.183 513.967C481.183 513.967 441.943 478.652 441.943 394.287C439.981 180.433 687.189 178.471 695.037 178.471L695.037 178.471C698.961 178.471 950.093 172.585 950.093 433.527ZM759.782 570.865C757.82 570.865 667.57 557.131 596.939 513.967L596.939 513.967C581.243 535.549 559.661 553.207 538.08 568.903C618.52 631.686 740.162 647.381 748.01 649.343C749.972 649.343 751.934 649.343 753.896 649.343C773.516 649.343 789.212 635.609 793.135 615.99C795.097 594.408 781.364 574.788 759.782 570.865Z" fill="#e64a19" fill-rule="nonzero" opacity="1" stroke="none" vectornator:layerName="path 6"/>
<path d="M693.075 276.569L693.075 276.569C718.581 276.569 832.375 296.189 832.375 433.527C832.375 608.142 661.684 708.202 538.08 708.202C479.221 708.202 410.552 686.621 355.617 643.457C432.133 627.762 636.178 568.903 636.178 394.287C636.178 349.162 624.406 311.885 606.749 284.417C579.281 284.417 542.004 317.771 538.08 327.58C551.813 345.238 557.699 366.82 557.699 396.249C557.699 537.511 318.339 572.826 316.377 572.826C306.567 574.788 298.72 578.712 292.834 584.598L292.834 584.598C263.404 541.435 243.784 492.386 243.784 433.527C243.784 294.227 361.503 276.569 385.046 276.569C388.97 276.569 392.894 276.569 394.856 276.569C410.552 276.569 438.019 276.569 467.449 284.417C467.449 284.417 467.449 282.455 469.411 282.455C473.335 276.569 502.764 237.33 534.156 221.634C536.118 221.634 536.118 219.672 536.118 219.672C479.221 188.281 416.438 180.433 390.932 178.471C353.655 180.433 184.925 200.053 184.925 433.527C184.925 545.359 279.1 767.061 538.08 767.061C797.059 767.061 871.614 551.245 871.614 453.146C871.614 292.265 740.162 276.569 693.075 276.569Z" fill="#bf360c" fill-rule="nonzero" opacity="1" stroke="none" vectornator:layerName="path 7"/>
<path d="M871.614 570.865C883.386 570.865 891.234 578.712 891.234 590.484C891.234 602.256 883.386 610.104 871.614 610.104C859.842 610.104 851.995 602.256 851.995 590.484C851.995 578.712 859.842 570.865 871.614 570.865ZM714.657 708.202C726.429 708.202 734.276 716.05 734.276 727.822C734.276 739.594 726.429 747.442 714.657 747.442C702.885 747.442 695.037 739.594 695.037 727.822C695.037 716.05 702.885 708.202 714.657 708.202ZM616.558 747.442C628.33 747.442 636.178 755.29 636.178 767.061C636.178 778.833 628.33 786.681 616.558 786.681C604.787 786.681 596.939 778.833 596.939 767.061C596.939 755.29 604.787 747.442 616.558 747.442ZM400.742 708.202C412.514 708.202 420.362 716.05 420.362 727.822C420.362 739.594 412.514 747.442 400.742 747.442C388.97 747.442 381.122 739.594 381.122 727.822C381.122 716.05 388.97 708.202 400.742 708.202ZM322.263 708.202C334.035 708.202 341.883 716.05 341.883 727.822C341.883 739.594 334.035 747.442 322.263 747.442C310.491 747.442 302.644 739.594 302.644 727.822C302.644 716.05 310.491 708.202 322.263 708.202ZM210.431 437.451C222.203 437.451 230.051 445.299 230.051 457.07C230.051 468.842 222.203 476.69 210.431 476.69C198.659 476.69 190.811 468.842 190.811 457.07C190.811 445.299 200.621 437.451 210.431 437.451ZM204.545 531.625C216.317 531.625 224.165 539.473 224.165 551.245C224.165 563.017 216.317 570.865 204.545 570.865C192.773 570.865 184.925 563.017 184.925 551.245C184.925 539.473 192.773 531.625 204.545 531.625ZM871.614 492.386C883.386 492.386 891.234 500.234 891.234 512.005C891.234 523.777 883.386 531.625 871.614 531.625C859.842 531.625 851.995 523.777 851.995 512.005C851.995 500.234 859.842 492.386 871.614 492.386ZM904.968 425.679C916.739 425.679 924.587 433.527 924.587 445.299C924.587 457.07 916.739 464.918 904.968 464.918C893.196 464.918 885.348 457.07 885.348 445.299C885.348 433.527 893.196 425.679 904.968 425.679Z" fill="#ffe0b2" fill-rule="nonzero" opacity="1" stroke="none" vectornator:layerName="path 8"/>
<g opacity="1" vectornator:layerName="Group 1">
<path d="M676.409 259.203C673.355 250.345 675.975 241.243 682.334 238.884C688.658 236.468 696.256 241.693 699.334 250.575C702.388 259.433 699.745 268.529 693.418 270.908C687.092 273.257 679.441 268.074 676.409 259.203ZM710.832 267.866C707.778 259.008 710.398 249.907 716.757 247.548C723.081 245.131 730.679 250.356 733.758 259.239C736.811 268.096 734.168 277.192 727.841 279.571C721.516 281.92 713.864 276.737 710.832 267.866ZM641.262 234.02C633.326 238.765 631.698 250.649 637.626 260.564C643.554 270.479 654.793 274.671 662.729 269.926C670.665 265.181 672.293 253.297 666.365 243.382C660.437 233.467 649.198 229.276 641.262 234.02ZM630.834 327.987C617.965 335.68 595.81 353.635 614.005 384.068C640.362 428.153 688.979 398.599 717.998 447.136C741.19 485.929 706.09 513.698 733.767 556.926C748.636 580.165 769.546 595.982 804.582 575.035C828.459 560.759 827.279 527.513 813.776 504.928C777.017 443.444 803.099 402.856 765.397 343.953C749.523 319.152 727.417 309.859 705.347 308.485C675.018 306.596 644.758 319.662 630.834 327.987ZM592.787 321.236C603.267 312.417 600.936 292.18 587.668 276.054C574.364 259.931 555.101 253.979 544.636 262.79C534.17 271.601 536.487 291.846 549.778 307.978C563.091 324.115 582.33 330.061 592.787 321.236Z" fill="#ffe0b2" fill-rule="nonzero" opacity="1" stroke="#565656" stroke-linecap="round" stroke-linejoin="round" stroke-width="15" vectornator:layerName="path 4"/>
<path d="M632.915 287.673C642.184 280.873 641.855 264.85 632.176 251.823C622.502 238.773 607.159 233.734 597.882 240.538C588.612 247.338 588.978 263.359 598.606 276.397C608.299 289.415 623.658 294.445 632.915 287.673Z" fill="#ffe0b2" fill-rule="nonzero" opacity="1" stroke="#565656" stroke-linecap="round" stroke-linejoin="round" stroke-width="15" vectornator:layerName="path 5"/>
</g>
<g opacity="1" vectornator:layerName="Group 2">
<path d="M518.655 454.445C510.794 451.317 501.18 455.574 497.406 463.351L479.007 502.691L446.785 409.74C443.544 400.39 433.809 394.523 424.543 397.119C414.452 400.001 408.967 410.836 412.494 421.011L412.494 421.011L406.107 402.586C402.77 392.961 392.305 387.655 382.955 390.896L381.03 391.563C371.68 394.805 366.745 405.449 370.081 415.074L377.898 437.624L377.898 437.624C374.371 427.449 363.356 422.334 353.647 426.316C344.763 430.012 340.747 440.645 343.989 449.995L357.716 489.596L357.716 489.596C354.952 481.621 346.434 477.488 338.734 480.157L338.734 480.157C331.034 482.827 326.901 491.344 329.666 499.319L353.594 568.345C358.551 582.645 366.079 596.362 375.425 608.217L375.425 608.217C384.866 620.346 392.299 633.789 397.256 648.089L404.692 669.539C406.694 675.314 409.759 669.939 415.534 667.937L508.21 635.81C513.71 633.904 519.72 636.133 517.718 630.358L506.945 599.283C504.181 591.308 503.616 582.57 505.633 574.17L530.121 474.19C531.133 466.446 526.791 457.477 518.655 454.445Z" fill="#f5dda8" fill-rule="nonzero" opacity="1" stroke="none" vectornator:layerName="path"/>
<path d="M500.617 616.571L407.666 648.793C402.991 650.413 398.176 648.078 396.556 643.403C394.935 638.728 397.271 633.913 401.946 632.293L494.622 600.166C499.297 598.546 504.111 600.881 505.732 605.556C507.352 610.232 505.017 615.046 500.617 616.571Z" fill="#98bed8" fill-rule="nonzero" opacity="1" stroke="none" vectornator:layerName="path 1"/>
<path d="M518.231 642.502L518.231 642.502C516.581 643.074 514.836 643.371 512.995 643.393C511.8 643.499 510.604 643.606 509.779 643.892L417.103 676.018C416.278 676.304 415.274 676.96 414.269 677.617C412.989 678.368 411.53 679.49 409.605 680.158C404.655 681.874 397.915 680.205 395.246 672.505L387.81 651.055C383.139 637.58 376.268 624.867 367.483 613.742C357.48 600.883 349.762 586.616 344.423 571.216L320.591 502.465C316.301 490.09 322.674 476.483 335.049 472.193C336.974 471.526 339.269 471.038 341.11 471.016L335.009 453.416C330.242 439.666 336.689 424.493 349.507 418.817C353.262 417.208 357.028 416.518 360.805 416.75C356.958 402.988 364.241 388.45 377.716 383.779L379.641 383.112C391.741 378.917 404.967 384.19 411.445 394.882C414.269 392.363 417.928 390.478 421.778 389.144C435.264 385.393 449.718 393.32 454.58 407.346L479.843 480.221L489.27 460.319C492.325 454.023 497.696 449.08 504.571 446.697C510.346 444.695 516.239 444.809 521.603 446.954C533.718 451.688 540.409 464.771 537.337 477.234L530.068 507.33L513.304 576.747C511.635 583.487 512.178 590.384 514.371 596.709L525.048 627.509C526.096 630.534 526.129 633.295 525.421 635.697C524.079 638.935 521.531 641.358 518.231 642.502ZM340.673 488.418C337.373 489.562 335.852 493.17 336.996 496.47L360.924 565.496C365.595 578.971 372.466 591.684 381.251 602.809C391.254 615.668 398.972 629.935 404.311 645.335L409.458 660.185C410.008 659.995 410.558 659.804 411.383 659.518L504.059 627.392C504.609 627.201 505.434 626.915 505.984 626.724L497.5 602.249C494.163 592.624 493.672 582.321 496.037 572.259L520.525 472.28C521.581 468.217 519.41 463.733 515.527 462.306C512.29 460.964 507.255 463.326 505.363 466.754L487.059 506.369C485.441 509.702 482.332 511.396 478.651 511.44C475.149 511.113 471.9 508.851 470.756 505.551L438.535 412.6C436.723 407.375 431.348 404.309 426.853 405.56C421.532 407.096 418.562 412.746 420.469 418.246C422.089 422.921 419.754 427.736 415.079 429.356C410.404 430.977 405.589 428.641 403.969 423.966L403.969 423.966L403.873 423.691L397.582 405.541C395.77 400.316 390.215 397.621 385.54 399.241L383.615 399.909C378.665 401.625 376.245 407.084 378.056 412.309L385.873 434.86C387.494 439.535 385.158 444.349 380.483 445.97C375.808 447.59 370.994 445.254 369.373 440.579L369.373 440.579L369.373 440.579L369.278 440.304C367.467 435.079 361.637 432.48 356.507 434.566C351.927 436.462 349.877 442.101 351.689 447.326L365.416 486.926C366.37 489.676 365.948 492.903 364.045 495.411C362.047 497.644 359.117 498.968 356.165 498.451C352.938 498.029 350.06 495.946 348.916 492.646C347.677 489.071 343.974 487.274 340.673 488.418Z" fill="#454b54" fill-rule="nonzero" opacity="1" stroke="none" vectornator:layerName="path 2"/>
<path d="M374.23 539.012C369.555 540.632 364.741 538.297 363.12 533.622L348.916 492.646C347.296 487.971 349.631 483.157 354.306 481.536C358.981 479.916 363.796 482.251 365.416 486.926L379.621 527.902C381.146 532.302 378.63 537.486 374.23 539.012ZM399.751 502.441C395.076 504.061 390.262 501.725 388.641 497.05L369.003 440.4C367.382 435.725 369.718 430.91 374.393 429.29C379.068 427.669 383.882 430.005 385.503 434.68L405.141 491.331C406.762 496.006 404.426 500.82 399.751 502.441ZM435.087 486.187C430.412 487.807 425.598 485.471 423.977 480.796L403.969 423.966C402.348 419.291 404.684 414.477 409.359 412.856L409.359 412.856C414.034 411.235 418.848 413.571 420.469 418.246L440.477 475.077C442.003 479.477 439.762 484.566 435.087 486.187L435.087 486.187Z" fill="#454b54" fill-rule="nonzero" opacity="1" stroke="none" vectornator:layerName="path 3"/>
</g>
</g>
</svg>
